<?xml version="1.0" standalone="no"?><!DOCTYPE svg PUBLIC "-//W3C//DTD SVG 1.1//EN" "http://www.w3.org/Graphics/SVG/1.1/DTD/svg11.dtd"><svg t="1593571392030" class="icon" viewBox="0 0 1024 1024" version="1.1" xmlns="http://www.w3.org/2000/svg" p-id="4988" xmlns:xlink="http://www.w3.org/1999/xlink" width="200" height="200"><defs><style type="text/css"></style></defs><path d="M797.064 768c1.932 0.188 3.889 0.29 5.87 0.29 1.982 0 3.939-0.29 5.871-0.29h-11.741z m66.07-59.71c0-1.284-0.134-2.554-0.134-3.818v7.636c0-1.264 0.134-2.535 0.134-3.818z m-582.994 60c1.981 0 3.938-0.102 5.87-0.29h-11.74c1.932 0.188 3.889 0.29 5.87 0.29z" p-id="4989"></path><path d="M930 900H124V94c0-16.568-13.432-30-30-30S64 77.432 64 94v806c0 33.137 26.863 60 60 60h806c16.568 0 30-13.432 30-30s-13.432-30-30-30z" p-id="4990"></path><path d="M188.917 780.801a29.882 29.882 0 0 0 19.859 7.524c8.298 0 16.559-3.424 22.487-10.13l218.903-247.604 148.85 156.498 304.199-402.478c9.99-13.218 7.374-32.032-5.844-42.022-13.218-9.99-32.033-7.374-42.021 5.844L593.774 594.518 448.551 441.833 186.312 738.455c-10.975 12.413-9.808 31.372 2.605 42.346z" p-id="4991"></path></svg>