<svg t="1593574193974" class="icon" viewBox="0 0 1024 1024" version="1.1" xmlns="http://www.w3.org/2000/svg" p-id="36514" width="200" height="200"><path d="M928 896H128V96a32 32 0 0 0-64 0v832c0 17.688 14.312 32 32 32h832c17.624 0 32-14.312 32-32s-14.376-32-32-32z" p-id="36515"></path><path d="M320 800a32 32 0 0 1-64 0V416a32 32 0 0 1 64 0v384zM512 800a32 32 0 0 1-64 0V96a32 32 0 0 1 64 0v704zM704 800a32 32 0 0 1-64 0V512a32 32 0 0 1 64 0v288zM896 800a32 32 0 0 1-64 0V288a32 32 0 0 1 64 0v512z" p-id="36516"></path><path d="M256 640h64v33.248h-64z" p-id="36517"></path><path d="M320 800a32 32 0 0 1-64 0V672a32 32 0 0 1 64 0v128z" p-id="36518"></path><path d="M448 640h64v33.248h-64z" p-id="36519"></path><path d="M512 800a32 32 0 0 1-64 0V672a32 32 0 0 1 64 0v128z" p-id="36520"></path><path d="M640 640h64v33.248h-64z" p-id="36521"></path><path d="M704 800a32 32 0 0 1-64 0V672a32 32 0 0 1 64 0v128z" p-id="36522"></path><path d="M832 640h64v33.248h-64z" p-id="36523"></path><path d="M896 800a32 32 0 0 1-64 0V672a32 32 0 0 1 64 0v128z" p-id="36524"></path></svg>