<?xml version="1.0" standalone="no"?><!DOCTYPE svg PUBLIC "-//W3C//DTD SVG 1.1//EN" "http://www.w3.org/Graphics/SVG/1.1/DTD/svg11.dtd"><svg t="1593571141300" class="icon" viewBox="0 0 1024 1024" version="1.1" xmlns="http://www.w3.org/2000/svg" p-id="853" xmlns:xlink="http://www.w3.org/1999/xlink" width="200" height="200"><defs><style type="text/css"></style></defs><path d="M810.398678 895.365289H204.122975a115.094215 115.094215 0 0 1-115.094215-115.094215V242.713388a115.094215 115.094215 0 0 1 115.094215-115.094214h606.275703a115.094215 115.094215 0 0 1 115.094215 115.094214v537.557686a115.432727 115.432727 0 0 1-115.094215 115.094215zM204.122975 195.321653a47.391736 47.391736 0 0 0-47.391735 47.391735v537.557686a47.391736 47.391736 0 0 0 47.391735 47.391736h606.275703a47.391736 47.391736 0 0 0 47.391735-47.391736V242.713388a47.391736 47.391736 0 0 0-47.391735-47.391735z" p-id="854"></path><path d="M348.667769 165.871074h67.702479v690.56529h-67.702479zM594.427769 165.871074h67.702479v690.56529h-67.702479z" p-id="855"></path></svg>