<svg t="1593657065370" class="icon" viewBox="0 0 1024 1024" version="1.1" xmlns="http://www.w3.org/2000/svg" p-id="12035" width="200" height="200"><path d="M192 832V128H149.333333v746.666667h746.666667v-42.666667z" p-id="12036"></path><path d="M298.666667 234.666667m-42.666667 0a42.666667 42.666667 0 1 0 85.333333 0 42.666667 42.666667 0 1 0-85.333333 0Z" p-id="12037"></path><path d="M682.666667 234.666667m-42.666667 0a42.666667 42.666667 0 1 0 85.333333 0 42.666667 42.666667 0 1 0-85.333333 0Z" p-id="12038"></path><path d="M832 234.666667m-42.666667 0a42.666667 42.666667 0 1 0 85.333334 0 42.666667 42.666667 0 1 0-85.333334 0Z" p-id="12039"></path><path d="M490.666667 234.666667m-85.333334 0a85.333333 85.333333 0 1 0 170.666667 0 85.333333 85.333333 0 1 0-170.666667 0Z" p-id="12040"></path><path d="M298.666667 704m-42.666667 0a42.666667 42.666667 0 1 0 85.333333 0 42.666667 42.666667 0 1 0-85.333333 0Z" p-id="12041"></path><path d="M640 704m-42.666667 0a42.666667 42.666667 0 1 0 85.333334 0 42.666667 42.666667 0 1 0-85.333334 0Z" p-id="12042"></path><path d="M469.333333 704m-64 0a64 64 0 1 0 128 0 64 64 0 1 0-128 0Z" p-id="12043"></path><path d="M810.666667 704m-85.333334 0a85.333333 85.333333 0 1 0 170.666667 0 85.333333 85.333333 0 1 0-170.666667 0Z" p-id="12044"></path><path d="M298.666667 469.333333m-42.666667 0a42.666667 42.666667 0 1 0 85.333333 0 42.666667 42.666667 0 1 0-85.333333 0Z" p-id="12045"></path><path d="M832 469.333333m-42.666667 0a42.666667 42.666667 0 1 0 85.333334 0 42.666667 42.666667 0 1 0-85.333334 0Z" p-id="12046"></path><path d="M682.666667 469.333333m-64 0a64 64 0 1 0 128 0 64 64 0 1 0-128 0Z" p-id="12047"></path></svg>